<?xml version="1.0" encoding="utf-8"?>
<!-- Generator: Adobe Illustrator 25.1.0, SVG Export Plug-In . SVG Version: 6.00 Build 0)  -->
<svg version="1.1" id="Layer_1" xmlns="http://www.w3.org/2000/svg" xmlns:xlink="http://www.w3.org/1999/xlink" x="0px" y="0px"
	 viewBox="0 0 263 263" style="enable-background:new 0 0 263 263;" xml:space="preserve">
<style type="text/css">
	.st0{clip-path:url(#SVGID_2_);fill:#404040;stroke:#000000;stroke-width:1.8628;}
</style>
<g>
	<defs>
		<rect id="SVGID_1_" y="0" width="263" height="263"/>
	</defs>
	<clipPath id="SVGID_2_">
		<use xlink:href="#SVGID_1_"  style="display:none;overflow:visible;"/>
	</clipPath>
	<path class="st0" d="M234.8,102.8c-2.3-8.3-5.6-16.2-10-23.6l9.6-28.6l-21.8-21.7l-28.7,9.5c-7.6-4.2-15.7-7.6-24.1-9.9l-13-26.8
		h-30.6l-13.4,26.7c-8.3,2.3-16.3,5.6-23.8,9.9l-28.7-9.5L28.3,50.5l9.6,28.6c-4.3,7.6-7.6,15.7-10,24l-26.8,13v30.5L28,159.9
		c2.3,8.3,5.6,16.3,10,23.7l-9.6,28.6L50.2,234l28.7-9.5c7.6,4.2,15.7,7.6,24.1,9.9l13.4,26.7h30.6l13.4-26.7
		c8.3-2.3,16.3-5.6,23.8-9.9L213,234l21.8-21.7l-9.6-28.6c4.3-7.6,7.6-15.7,10-24l26.8-13.3v-30.5L234.8,102.8z M131.4,169.5
		c-21.2,0-38.3-17.1-38.3-38.1c0-21,17.2-38.1,38.3-38.1c21.2,0,38.3,17.1,38.3,38.1C169.7,152.4,152.6,169.5,131.4,169.5z"/>
</g>
</svg>
