<svg width="263" height="263" xmlns="http://www.w3.org/2000/svg" xmlns:xlink="http://www.w3.org/1999/xlink" overflow="hidden"><defs><clipPath id="clip0"><rect x="935" y="84" width="263" height="263"/></clipPath></defs><g clip-path="url(#clip0)" transform="translate(-935 -84)"><path d="M89.9824 235.315 80.4504 263.912 102.183 285.645 130.78 276.113C138.366 280.356 146.429 283.684 154.8 286.026L168.145 312.716 198.648 312.716 211.992 286.026C220.266 283.752 228.211 280.42 235.632 276.113L264.228 285.645 285.961 263.912 276.429 235.315C280.67 227.728 283.998 219.665 286.342 211.295L313.032 197.95 313.032 167.447 285.961 154.484C283.685 146.211 280.353 138.266 276.048 130.844L285.58 102.248 263.847 80.5152 235.251 90.0472C227.664 85.804 219.601 82.4761 211.23 80.1339L198.266 53.3794 167.764 53.3794 154.419 80.0691C146.146 82.3434 138.2 85.6755 130.78 89.9824L102.183 80.4504 80.4504 102.183 89.9824 130.78C85.741 138.367 82.4132 146.43 80.0691 154.8L53.3794 167.764 53.3794 198.266 80.0691 211.611C82.34 219.906 85.672 227.873 89.9824 235.315ZM61.005 172.583 83.4015 161.701 86.5166 160.176 87.4278 156.836C89.6168 149.045 92.7177 141.539 96.6663 134.474L98.2715 131.554 97.2191 128.389 89.1741 104.258 104.246 89.1817 128.37 97.2268 131.63 98.3134 134.604 96.59C141.455 92.6133 148.79 89.5375 156.428 87.4393L159.719 86.5433 161.244 83.493 172.484 61.005 193.5 61.005 204.367 83.4244 205.892 86.5356 209.232 87.4469C217.02 89.6393 224.524 92.7414 231.587 96.6892L234.511 98.2982 237.676 97.242 261.799 89.197 276.871 104.273 268.826 128.404 267.74 131.664 269.463 134.634C273.442 141.487 276.517 148.825 278.614 156.466L279.533 159.833 282.678 161.339 305.406 172.232 305.406 193.23 282.93 204.47 279.88 205.995 278.984 209.282C276.794 217.073 273.693 224.579 269.745 231.644L268.14 234.564 269.192 237.729 277.237 261.86 262.165 276.936 238.042 268.891 234.782 267.804 231.808 269.528C224.956 273.505 217.619 276.581 209.979 278.679L206.693 279.575 205.168 282.625 193.927 305.12 172.865 305.12 161.629 282.625 160.104 279.575 156.813 278.679C149.026 276.486 141.524 273.384 134.463 269.436L131.538 267.827 128.374 268.883 104.25 276.928 89.1779 261.853 97.2268 237.729 98.3096 234.469 96.59 231.495C92.6102 224.643 89.5344 217.305 87.4393 209.663L86.5394 206.376 83.4892 204.851 61.005 193.611Z" stroke="#000000" stroke-width="1.86275" fill="#92D050" transform="matrix(1.0048 0 0 1 882.51 32.3092)"/><path d="M183.015 228.834C208.284 228.834 228.769 208.349 228.769 183.08 228.769 157.811 208.284 137.326 183.015 137.326 157.746 137.326 137.261 157.811 137.261 183.08 137.341 208.316 157.779 228.754 183.015 228.834ZM183.015 144.925C204.072 144.925 221.143 161.996 221.143 183.053 221.143 204.111 204.072 221.181 183.015 221.181 161.958 221.181 144.887 204.111 144.887 183.053 144.914 162.007 161.969 144.953 183.015 144.925Z" stroke="#000000" stroke-width="1.86275" fill="#92D050" transform="matrix(1.0048 0 0 1 882.51 32.3092)"/></g></svg>